# xmcd
#
# Track frame offsets: 
#        150
#        17681
#        36064
#        52062
#        66814
#        86116
#        102772
#        118651
#        135944
#        153959
#        169339
#        185426
#        201235
#        218174
#        235407
#        248090
#        262309
#        276849
#        294978
#        309495
#        325200
#        341599
#
# Disc length: 4776 seconds
#
# Revision: 0
# Processed by: cddbd v1.5.2PL0 Copyright (c) Steve Scherf et al.
# Submitted via: ExactAudioCopy v1.1
#
DISCID=4712a616
DTITLE=Various Artist - MNM Party 2017 Volume 2 - CD 2
DYEAR=2017
DGENRE=Pop
TTITLE0=Snap! Feat. Summer - The First The Last Eternity
TTITLE1=Avicii - Wake Me Up!
TTITLE2=Fiocco - The Spirit
TTITLE3=Snoop Dogg Vs. David Guetta - Sweat
TTITLE4=Culture Beat - Mr. Vain
TTITLE5=DJ Casper - Cha Cha Slide
TTITLE6=Swedish House Mafia - Save The World
TTITLE7=Flo Rida Feat. T-Pain - Low
TTITLE8=The Black Eyed Peas - Rock That Body
TTITLE9=Future Breeze - Why Don't You Dance With Me
TTITLE10=Akon - Smack That
TTITLE11=Iggy Azalea Feat. Rita Ora - Black Widow
TTITLE12=Captain Hollywood Project - Flying High
TTITLE13=Nelly - Hot In Herre
TTITLE14=Sandro Silva and Quintino - Epic
TTITLE15=Ian Oliver Feat. Shantel - Bucovina
TTITLE16=Brainpower - Dansplaat
TTITLE17=Artful Dodger Feat. Craig David - Re-Rewind (The Crowd Say Bo
TTITLE17=o Selecta)
TTITLE18=Camille Jones Vs. Fedde Le Grand - The Creeps
TTITLE19=De Jeugd Van Tegenwoordig - Watskeburt?!
TTITLE20=Jennifer Lopez - On The Floor
TTITLE21=Soulja Boy Tellem - Crank That (Soulja Boy)
EXTD=
EXTT0=
EXTT1=
EXTT2=
EXTT3=
EXTT4=
EXTT5=
EXTT6=
EXTT7=
EXTT8=
EXTT9=
EXTT10=
EXTT11=
EXTT12=
EXTT13=
EXTT14=
EXTT15=
EXTT16=
EXTT17=
EXTT18=
EXTT19=
EXTT20=
EXTT21=
PLAYORDER=
